<svg xmlns="http://www.w3.org/2000/svg" width="800" height="300" viewBox="0 0 800 300">
    <defs>
        <linearGradient id="backgroundGradient" x1="0%" y1="0%" x2="100%" y2="100%">
            <stop offset="0%" style="stop-color: #222299; stop-opacity: 1"></stop>
            <stop offset="100%" style="stop-color: #13137f; stop-opacity: 1"></stop>
        </linearGradient>
        <linearGradient id="gradient">
            <stop offset="0%" stop-color="rgba(149,46,157,0)"></stop>
            <stop offset="100%" stop-color="rgb(149,46,157)"></stop>
        </linearGradient>
        <linearGradient id="gradient_rev">
            <stop offset="0%" stop-color="rgb(149,46,157)"></stop>
            <stop offset="100%" stop-color="rgba(149,46,157,0)"></stop>
        </linearGradient>
    </defs>
    <rect width="800" height="300" fill="url(#backgroundGradient)"></rect>
    <line x1="5" y1="121" x2="175" y2="291" stroke-width="4" stroke-linecap="round"
        stroke="url(#gradient_rev)"></line>
    <line x1="26" y1="44" x2="152" y2="170" stroke-width="4" stroke-linecap="round"
        stroke="url(#gradient_rev)"></line>
    <line x1="42" y1="-34" x2="180" y2="104" stroke-width="5" stroke-linecap="round"
        stroke="url(#gradient)"></line>
    <line x1="66" y1="224" x2="171" y2="329" stroke-width="4" stroke-linecap="round"
        stroke="url(#gradient)"></line>
    <line x1="91" y1="304" x2="251" y2="464" stroke-width="5" stroke-linecap="round"
        stroke="url(#gradient)"></line>
    <line x1="111" y1="199" x2="268" y2="356" stroke-width="5" stroke-linecap="round"
        stroke="url(#gradient)"></line>
    <line x1="138" y1="-60" x2="267" y2="69" stroke-width="4" stroke-linecap="round"
        stroke="url(#gradient)"></line>
    <line x1="155" y1="123" x2="345" y2="313" stroke-width="5" stroke-linecap="round"
        stroke="url(#gradient_rev)"></line>
    <line x1="180" y1="218" x2="326" y2="364" stroke-width="5" stroke-linecap="round"
        stroke="url(#gradient)"></line>
    <line x1="197" y1="59" x2="310" y2="172" stroke-width="5" stroke-linecap="round"
        stroke="url(#gradient)"></line>
    <line x1="224" y1="292" x2="368" y2="436" stroke-width="6" stroke-linecap="round"
        stroke="url(#gradient)"></line>
    <line x1="240" y1="259" x2="436" y2="455" stroke-width="4" stroke-linecap="round"
        stroke="url(#gradient_rev)"></line>
    <line x1="263" y1="47" x2="432" y2="216" stroke-width="5" stroke-linecap="round"
        stroke="url(#gradient_rev)"></line>
    <line x1="292" y1="127" x2="454" y2="289" stroke-width="5" stroke-linecap="round"
        stroke="url(#gradient)"></line>
    <line x1="315" y1="231" x2="422" y2="338" stroke-width="3" stroke-linecap="round"
        stroke="url(#gradient_rev)"></line>
    <line x1="330" y1="100" x2="451" y2="221" stroke-width="3" stroke-linecap="round"
        stroke="url(#gradient)"></line>
    <line x1="361" y1="-16" x2="554" y2="177" stroke-width="5" stroke-linecap="round"
        stroke="url(#gradient)"></line>
    <line x1="381" y1="275" x2="521" y2="415" stroke-width="4" stroke-linecap="round"
        stroke="url(#gradient)"></line>
    <line x1="399" y1="220" x2="572" y2="393" stroke-width="5" stroke-linecap="round"
        stroke="url(#gradient)"></line>
    <line x1="421" y1="13" x2="547" y2="139" stroke-width="4" stroke-linecap="round"
        stroke="url(#gradient_rev)"></line>
    <line x1="440" y1="94" x2="584" y2="238" stroke-width="7" stroke-linecap="round"
        stroke="url(#gradient)"></line>
    <line x1="467" y1="269" x2="617" y2="419" stroke-width="5" stroke-linecap="round"
        stroke="url(#gradient)"></line>
    <line x1="489" y1="308" x2="661" y2="480" stroke-width="4" stroke-linecap="round"
        stroke="url(#gradient_rev)"></line>
    <line x1="512" y1="182" x2="700" y2="370" stroke-width="5" stroke-linecap="round"
        stroke="url(#gradient_rev)"></line>
    <line x1="530" y1="110" x2="673" y2="253" stroke-width="4" stroke-linecap="round"
        stroke="url(#gradient_rev)"></line>
    <line x1="556" y1="123" x2="707" y2="274" stroke-width="6" stroke-linecap="round"
        stroke="url(#gradient)"></line>
    <line x1="574" y1="82" x2="758" y2="266" stroke-width="4" stroke-linecap="round"
        stroke="url(#gradient_rev)"></line>
    <line x1="597" y1="-25" x2="724" y2="102" stroke-width="5" stroke-linecap="round"
        stroke="url(#gradient)"></line>
    <line x1="624" y1="54" x2="784" y2="214" stroke-width="4" stroke-linecap="round"
        stroke="url(#gradient)"></line>
    <line x1="641" y1="-8" x2="747" y2="98" stroke-width="4" stroke-linecap="round"
        stroke="url(#gradient_rev)"></line>
    <line x1="664" y1="83" x2="792" y2="211" stroke-width="4" stroke-linecap="round"
        stroke="url(#gradient_rev)"></line>
    <line x1="689" y1="52" x2="877" y2="240" stroke-width="5" stroke-linecap="round"
        stroke="url(#gradient_rev)"></line>
    <line x1="709" y1="66" x2="907" y2="264" stroke-width="5" stroke-linecap="round"
        stroke="url(#gradient)"></line>
    <line x1="736" y1="145" x2="883" y2="292" stroke-width="4" stroke-linecap="round"
        stroke="url(#gradient_rev)"></line>
    <line x1="756" y1="149" x2="946" y2="339" stroke-width="4" stroke-linecap="round"
        stroke="url(#gradient_rev)"></line>
    <line x1="774" y1="-4" x2="923" y2="145" stroke-width="5" stroke-linecap="round"
        stroke="url(#gradient_rev)"></line>
</svg>