<svg xmlns="http://www.w3.org/2000/svg" width="800" height="300" viewbox="0 0 800 300"><linearGradient id="backgroundGradient" x1="0%" y1="0%" x2="100%" y2="100%"><stop offset="0%" style="stop-color: #222299; stop-opacity: 1"></stop><stop offset="100%" style="stop-color: #13137f; stop-opacity: 1"></stop></linearGradient><rect width="800" height="300" fill="url(#backgroundGradient)"></rect><linearGradient id="gradient"><stop offset="0%" stop-color="rgba(149,46,157,0)"></stop><stop offset="100%" stop-color="rgb(149,46,157)"></stop></linearGradient><linearGradient id="gradient_rev"><stop offset="0%" stop-color="rgb(149,46,157)"></stop><stop offset="100%" stop-color="rgba(149,46,157,0)"></stop></linearGradient><line x1="-1" y1="-2" x2="103" y2="102" stroke-width="4" stroke-linecap="round" stroke="url(#gradient)"></line><line x1="20" y1="-20" x2="140" y2="100" stroke-width="5" stroke-linecap="round" stroke="url(#gradient_rev)"></line><line x1="39" y1="167" x2="228" y2="356" stroke-width="5" stroke-linecap="round" stroke="url(#gradient)"></line><line x1="60" y1="-34" x2="238" y2="144" stroke-width="4" stroke-linecap="round" stroke="url(#gradient)"></line><line x1="88" y1="-10" x2="257" y2="159" stroke-width="5" stroke-linecap="round" stroke="url(#gradient)"></line><line x1="104" y1="110" x2="216" y2="222" stroke-width="5" stroke-linecap="round" stroke="url(#gradient_rev)"></line><line x1="124" y1="354" x2="281" y2="511" stroke-width="5" stroke-linecap="round" stroke="url(#gradient_rev)"></line><line x1="150" y1="230" x2="283" y2="363" stroke-width="5" stroke-linecap="round" stroke="url(#gradient)"></line><line x1="164" y1="268" x2="353" y2="457" stroke-width="5" stroke-linecap="round" stroke="url(#gradient_rev)"></line><line x1="188" y1="-27" x2="384" y2="169" stroke-width="4" stroke-linecap="round" stroke="url(#gradient_rev)"></line><line x1="210" y1="11" x2="395" y2="196" stroke-width="4" stroke-linecap="round" stroke="url(#gradient)"></line><line x1="228" y1="39" x2="328" y2="139" stroke-width="4" stroke-linecap="round" stroke="url(#gradient)"></line><line x1="251" y1="136" x2="417" y2="302" stroke-width="5" stroke-linecap="round" stroke="url(#gradient_rev)"></line><line x1="277" y1="226" x2="424" y2="373" stroke-width="3" stroke-linecap="round" stroke="url(#gradient)"></line><line x1="297" y1="11" x2="497" y2="211" stroke-width="4" stroke-linecap="round" stroke="url(#gradient_rev)"></line><line x1="315" y1="140" x2="496" y2="321" stroke-width="6" stroke-linecap="round" stroke="url(#gradient)"></line><line x1="333" y1="172" x2="509" y2="348" stroke-width="4" stroke-linecap="round" stroke="url(#gradient_rev)"></line><line x1="359" y1="2" x2="551" y2="194" stroke-width="4" stroke-linecap="round" stroke="url(#gradient_rev)"></line><line x1="379" y1="-46" x2="507" y2="82" stroke-width="4" stroke-linecap="round" stroke="url(#gradient)"></line><line x1="402" y1="126" x2="514" y2="238" stroke-width="3" stroke-linecap="round" stroke="url(#gradient_rev)"></line><line x1="418" y1="-23" x2="610" y2="169" stroke-width="6" stroke-linecap="round" stroke="url(#gradient_rev)"></line><line x1="438" y1="-23" x2="549" y2="88" stroke-width="4" stroke-linecap="round" stroke="url(#gradient_rev)"></line><line x1="464" y1="-50" x2="629" y2="115" stroke-width="3" stroke-linecap="round" stroke="url(#gradient)"></line><line x1="488" y1="124" x2="621" y2="257" stroke-width="4" stroke-linecap="round" stroke="url(#gradient)"></line><line x1="507" y1="112" x2="639" y2="244" stroke-width="5" stroke-linecap="round" stroke="url(#gradient)"></line><line x1="522" y1="193" x2="660" y2="331" stroke-width="4" stroke-linecap="round" stroke="url(#gradient_rev)"></line><line x1="545" y1="32" x2="692" y2="179" stroke-width="4" stroke-linecap="round" stroke="url(#gradient_rev)"></line><line x1="569" y1="92" x2="729" y2="252" stroke-width="4" stroke-linecap="round" stroke="url(#gradient)"></line><line x1="589" y1="232" x2="769" y2="412" stroke-width="4" stroke-linecap="round" stroke="url(#gradient_rev)"></line><line x1="611" y1="74" x2="784" y2="247" stroke-width="5" stroke-linecap="round" stroke="url(#gradient_rev)"></line><line x1="631" y1="194" x2="743" y2="306" stroke-width="5" stroke-linecap="round" stroke="url(#gradient_rev)"></line><line x1="650" y1="92" x2="807" y2="249" stroke-width="4" stroke-linecap="round" stroke="url(#gradient)"></line><line x1="671" y1="50" x2="841" y2="220" stroke-width="4" stroke-linecap="round" stroke="url(#gradient)"></line><line x1="698" y1="158" x2="868" y2="328" stroke-width="4" stroke-linecap="round" stroke="url(#gradient_rev)"></line><line x1="717" y1="96" x2="905" y2="284" stroke-width="4" stroke-linecap="round" stroke="url(#gradient_rev)"></line><line x1="732" y1="140" x2="908" y2="316" stroke-width="5" stroke-linecap="round" stroke="url(#gradient)"></line><line x1="763" y1="116" x2="896" y2="249" stroke-width="5" stroke-linecap="round" stroke="url(#gradient)"></line><line x1="780" y1="321" x2="911" y2="452" stroke-width="4" stroke-linecap="round" stroke="url(#gradient_rev)"></line></svg>