<svg xmlns="http://www.w3.org/2000/svg" width="800" height="300" viewBox="0 0 800 300">
    <defs>
        <linearGradient id="backgroundGradient" x1="0%" y1="0%" x2="100%" y2="100%">
            <stop offset="0%" style="stop-color: #000000; stop-opacity: 1"></stop>
            <stop offset="100%" style="stop-color: #13137f; stop-opacity: 1"></stop>
        </linearGradient>
        <linearGradient id="gradient">
            <stop offset="0%" stop-color="rgba(186,128,3,0)"></stop>
            <stop offset="100%" stop-color="rgb(186,128,3)"></stop>
        </linearGradient>
        <linearGradient id="gradient_rev">
            <stop offset="0%" stop-color="rgb(186,128,3)"></stop>
            <stop offset="100%" stop-color="rgba(186,128,3,0)"></stop>
        </linearGradient>
    </defs>
    <rect width="800" height="300" fill="url(#backgroundGradient)"></rect>
    <line x1="-2" y1="48" x2="187" y2="237" stroke-width="4" stroke-linecap="round"
        stroke="url(#gradient_rev)"></line>
    <line x1="-10" y1="237" x2="176" y2="423" stroke-width="4" stroke-linecap="round"
        stroke="url(#gradient)"></line>
    <line x1="34" y1="65" x2="193" y2="224" stroke-width="5" stroke-linecap="round"
        stroke="url(#gradient)"></line>
    <line x1="39" y1="250" x2="225" y2="436" stroke-width="4" stroke-linecap="round"
        stroke="url(#gradient)"></line>
    <line x1="70" y1="-61" x2="234" y2="103" stroke-width="5" stroke-linecap="round"
        stroke="url(#gradient)"></line>
    <line x1="84" y1="316" x2="241" y2="473" stroke-width="5" stroke-linecap="round"
        stroke="url(#gradient)"></line>
    <line x1="126" y1="-21" x2="301" y2="154" stroke-width="4" stroke-linecap="round"
        stroke="url(#gradient)"></line>
    <line x1="121" y1="235" x2="273" y2="387" stroke-width="4" stroke-linecap="round"
        stroke="url(#gradient_rev)"></line>
    <line x1="164" y1="-7" x2="322" y2="151" stroke-width="4" stroke-linecap="round"
        stroke="url(#gradient)"></line>
    <line x1="156" y1="372" x2="317" y2="533" stroke-width="4" stroke-linecap="round"
        stroke="url(#gradient)"></line>
    <line x1="199" y1="-57" x2="377" y2="121" stroke-width="4" stroke-linecap="round"
        stroke="url(#gradient)"></line>
    <line x1="191" y1="338" x2="345" y2="492" stroke-width="5" stroke-linecap="round"
        stroke="url(#gradient)"></line>
    <line x1="234" y1="-55" x2="416" y2="127" stroke-width="4" stroke-linecap="round"
        stroke="url(#gradient)"></line>
    <line x1="240" y1="290" x2="435" y2="485" stroke-width="6" stroke-linecap="round"
        stroke="url(#gradient_rev)"></line>
    <line x1="275" y1="74" x2="440" y2="239" stroke-width="4" stroke-linecap="round"
        stroke="url(#gradient)"></line>
    <line x1="278" y1="319" x2="458" y2="499" stroke-width="4" stroke-linecap="round"
        stroke="url(#gradient_rev)"></line>
    <line x1="314" y1="-35" x2="509" y2="160" stroke-width="4" stroke-linecap="round"
        stroke="url(#gradient)"></line>
    <line x1="314" y1="352" x2="507" y2="545" stroke-width="5" stroke-linecap="round"
        stroke="url(#gradient)"></line>
    <line x1="362" y1="31" x2="517" y2="186" stroke-width="5" stroke-linecap="round"
        stroke="url(#gradient_rev)"></line>
    <line x1="357" y1="375" x2="543" y2="561" stroke-width="4" stroke-linecap="round"
        stroke="url(#gradient)"></line>
    <line x1="396" y1="5" x2="570" y2="179" stroke-width="5" stroke-linecap="round"
        stroke="url(#gradient)"></line>
    <line x1="404" y1="304" x2="595" y2="495" stroke-width="4" stroke-linecap="round"
        stroke="url(#gradient)"></line>
    <line x1="432" y1="2" x2="589" y2="159" stroke-width="4" stroke-linecap="round"
        stroke="url(#gradient_rev)"></line>
    <line x1="446" y1="260" x2="643" y2="457" stroke-width="3" stroke-linecap="round"
        stroke="url(#gradient)"></line>
    <line x1="472" y1="-62" x2="655" y2="121" stroke-width="4" stroke-linecap="round"
        stroke="url(#gradient)"></line>
    <line x1="479" y1="307" x2="677" y2="505" stroke-width="4" stroke-linecap="round"
        stroke="url(#gradient)"></line>
    <line x1="524" y1="11" x2="683" y2="170" stroke-width="5" stroke-linecap="round"
        stroke="url(#gradient_rev)"></line>
    <line x1="517" y1="356" x2="701" y2="540" stroke-width="5" stroke-linecap="round"
        stroke="url(#gradient_rev)"></line>
    <line x1="564" y1="42" x2="745" y2="223" stroke-width="3" stroke-linecap="round"
        stroke="url(#gradient_rev)"></line>
    <line x1="555" y1="331" x2="718" y2="494" stroke-width="5" stroke-linecap="round"
        stroke="url(#gradient)"></line>
    <line x1="601" y1="17" x2="790" y2="206" stroke-width="4" stroke-linecap="round"
        stroke="url(#gradient_rev)"></line>
    <line x1="608" y1="298" x2="780" y2="470" stroke-width="5" stroke-linecap="round"
        stroke="url(#gradient)"></line>
    <line x1="631" y1="-31" x2="831" y2="169" stroke-width="5" stroke-linecap="round"
        stroke="url(#gradient_rev)"></line>
    <line x1="645" y1="300" x2="829" y2="484" stroke-width="4" stroke-linecap="round"
        stroke="url(#gradient_rev)"></line>
    <line x1="678" y1="-63" x2="842" y2="101" stroke-width="4" stroke-linecap="round"
        stroke="url(#gradient)"></line>
    <line x1="681" y1="344" x2="873" y2="536" stroke-width="4" stroke-linecap="round"
        stroke="url(#gradient_rev)"></line>
    <line x1="719" y1="39" x2="916" y2="236" stroke-width="4" stroke-linecap="round"
        stroke="url(#gradient)"></line>
    <line x1="730" y1="289" x2="924" y2="483" stroke-width="5" stroke-linecap="round"
        stroke="url(#gradient)"></line>
    <line x1="765" y1="-60" x2="951" y2="126" stroke-width="4" stroke-linecap="round"
        stroke="url(#gradient_rev)"></line>
    <line x1="760" y1="355" x2="937" y2="532" stroke-width="5" stroke-linecap="round"
        stroke="url(#gradient_rev)"></line>
    <line x1="794" y1="-51" x2="965" y2="120" stroke-width="5" stroke-linecap="round"
        stroke="url(#gradient_rev)"></line>
    <line x1="796" y1="225" x2="986" y2="415" stroke-width="5" stroke-linecap="round"
        stroke="url(#gradient_rev)"></line>
</svg>